<svg width="50" height="50" viewBox="0 0 50 50" fill="none" xmlns="http://www.w3.org/2000/svg">
<g clip-path="url(#clip0_174_2706)">
<path d="M17.3773 44.1666C17.0365 44.6858 16.6865 45.1975 16.3281 45.7033" stroke="#FF4D00" stroke-width="2" stroke-miterlimit="10"/>
<path d="M19.9176 39.86C19.5343 40.5883 19.1335 41.3067 18.7168 42.015" stroke="#FF4D00" stroke-width="2" stroke-miterlimit="10"/>
<path d="M22.0182 35.3508C21.7057 36.1167 21.3748 36.8725 21.0273 37.6192" stroke="#FF4D00" stroke-width="2" stroke-miterlimit="10"/>
<path d="M26.5557 32.625C26.2249 33.6567 25.8649 34.675 25.4766 35.68" stroke="#FF4D00" stroke-width="2" stroke-miterlimit="10"/>
<path d="M28.5215 24.2758C28.1873 26.4449 27.7265 28.5724 27.1465 30.6499" stroke="#FF4D00" stroke-width="2" stroke-miterlimit="10"/>
<path d="M9.122 17.6041C9.0695 18.66 8.97034 19.7033 8.82617 20.7325" stroke="#FF4D00" stroke-width="2" stroke-miterlimit="10"/>
<path d="M8.51112 22.6033C8.41445 23.0983 8.30695 23.5891 8.18945 24.0758" stroke="#FF4D00" stroke-width="2" stroke-miterlimit="10"/>
<path d="M25.5071 21.6666C25.0663 25.5891 24.1863 29.3783 22.918 32.985" stroke="#FF4D00" stroke-width="2" stroke-miterlimit="10"/>
<path d="M2.78906 41.3316C8.82906 34.5566 12.4991 25.6233 12.4991 15.8333V15H7.49906C7.03906 15 6.66573 14.6266 6.66573 14.1666C6.66573 13.9358 6.75906 13.7275 6.91073 13.5766L18.5782 1.90913C18.7291 1.75913 18.9366 1.66663 19.1657 1.66663C19.3949 1.66663 19.6024 1.75913 19.7532 1.90913L31.4207 13.5766C31.5724 13.7275 31.6657 13.9358 31.6657 14.1666C31.6657 14.6266 31.2924 15 30.8324 15H25.8324V15.8333C25.8324 16.6716 25.8124 17.5058 25.7732 18.335" stroke="#FF4D00" stroke-width="2" stroke-miterlimit="10"/>
<path d="M42.4987 22.6975V45.8333L43.4179 46.14C44.362 46.4542 44.9987 47.3383 44.9987 48.3333C44.9987 48.7933 44.6254 49.1667 44.1654 49.1667H39.9987C39.0779 49.1667 38.332 48.4208 38.332 47.5V33.3333" stroke="#8E8E8E" stroke-width="2" stroke-miterlimit="10"/>
<path d="M38.3327 14.9999C40.6339 14.9999 42.4993 12.9479 42.4993 10.4166C42.4993 7.88528 40.6339 5.83325 38.3327 5.83325C36.0315 5.83325 34.166 7.88528 34.166 10.4166C34.166 12.9479 36.0315 14.9999 38.3327 14.9999Z" stroke="#8E8E8E" stroke-width="2" stroke-miterlimit="10"/>
<path d="M35.9504 40.2033L34.0254 47.9041C33.8395 48.6466 33.1729 49.1666 32.4079 49.1666H28.332C27.872 49.1666 27.4987 48.7933 27.4987 48.3333C27.4987 47.3541 28.1654 46.4999 29.1154 46.2624L30.207 45.9891L34.1654 30.1583V21.6666H24.9987C24.0779 21.6666 23.332 20.9208 23.332 19.9999C23.332 19.0791 24.0779 18.3333 24.9987 18.3333H40.832C43.5937 18.3333 45.832 20.5716 45.832 23.3333V32.9166C45.832 34.0674 44.8995 34.9999 43.7487 34.9999H42.4987" stroke="#8E8E8E" stroke-width="2" stroke-miterlimit="10"/>
<path d="M20.0007 5.83337H18.334V7.50004H20.0007V5.83337Z" fill="#FF4D00"/>
<path d="M20.0007 9.16663H18.334V10.8333H20.0007V9.16663Z" fill="#FF4D00"/>
<path d="M20.0007 12.5H18.334V14.1667H20.0007V12.5Z" fill="#FF4D00"/>
<path d="M13.3327 32.5H11.666V34.1667H13.3327V32.5Z" fill="#FF4D00"/>
<path d="M15.0007 29.1666H13.334V30.8333H15.0007V29.1666Z" fill="#FF4D00"/>
<path d="M11.6667 35.8334H10V37.5H11.6667V35.8334Z" fill="#FF4D00"/>
</g>
<defs>
<clipPath id="clip0_174_2706">
<rect width="50" height="50" fill="white"/>
</clipPath>
</defs>
</svg>
