<svg width="50" height="50" viewBox="0 0 50 50" fill="none" xmlns="http://www.w3.org/2000/svg">
<path d="M40.7175 12.6317C43.4 16.035 45 20.3308 45 25C45 36.0458 36.0458 45 25 45C13.9542 45 5 36.0458 5 25C5 13.9542 13.9542 5 25 5C28.8983 5 32.5358 6.115 35.6108 8.04333" stroke="#8E8E8E" stroke-width="2" stroke-miterlimit="10"/>
<path d="M37.6406 9.49915C38.1048 9.87748 38.5506 10.2775 38.9781 10.6958" stroke="#8E8E8E" stroke-width="2" stroke-miterlimit="10"/>
<path d="M5.37305 12.3767C5.68888 11.8867 6.02138 11.4108 6.37221 10.9475" stroke="#8E8E8E" stroke-width="2" stroke-miterlimit="10"/>
<path d="M7.98242 9.03746C12.2941 4.44163 18.3666 1.66663 25.0008 1.66663" stroke="#8E8E8E" stroke-width="2" stroke-miterlimit="10"/>
<path d="M44.6281 37.6233C44.3122 38.1133 43.9789 38.5891 43.6289 39.0525" stroke="#8E8E8E" stroke-width="2" stroke-miterlimit="10"/>
<path d="M42.0183 40.9624C37.7067 45.5582 31.6342 48.3332 25 48.3332" stroke="#8E8E8E" stroke-width="2" stroke-miterlimit="10"/>
<path d="M31.9591 13.9958C30.4682 8.57583 27.9074 5 24.9991 5C22.0907 5 19.5299 8.57583 18.0391 13.9958" stroke="#8E8E8E" stroke-width="2" stroke-miterlimit="10"/>
<path d="M31.1518 38.4916C29.6268 42.4916 27.4352 44.9999 24.9993 44.9999C22.5627 44.9999 20.371 42.4916 18.8477 38.4916" stroke="#8E8E8E" stroke-width="2" stroke-miterlimit="10"/>
<path d="M9.7725 30.4024C6.79667 28.9482 5 27.0616 5 24.9999C5 22.9382 6.79667 21.0516 9.7725 19.5974" stroke="#8E8E8E" stroke-width="2" stroke-miterlimit="10"/>
<path d="M40.2266 19.5974C43.2032 21.0516 44.9999 22.9382 44.9999 24.9999C44.9999 27.0616 43.2032 28.9482 40.2266 30.4024" stroke="#8E8E8E" stroke-width="2" stroke-miterlimit="10"/>
<path d="M35.0007 34.9999H15.0007C14.0807 34.9999 13.334 34.2533 13.334 33.3333V19.9999C13.334 19.0799 14.0807 18.3333 15.0007 18.3333H35.0007C35.9207 18.3333 36.6673 19.0799 36.6673 19.9999V33.3333C36.6673 34.2533 35.9207 34.9999 35.0007 34.9999Z" stroke="#FF4D00" stroke-width="2" stroke-miterlimit="10"/>
<path d="M20.834 18.3333V16.6666C20.834 15.2858 21.9532 14.1666 23.334 14.1666H26.6673C28.0473 14.1666 29.1673 15.2858 29.1673 16.6666V18.3333" stroke="#FF4D00" stroke-width="2" stroke-miterlimit="10"/>
<path d="M26.6667 28.3333H23.3333C22.8725 28.3333 22.5 27.9608 22.5 27.4999V24.1666C22.5 23.7058 22.8725 23.3333 23.3333 23.3333H26.6667C27.1275 23.3333 27.5 23.7058 27.5 24.1666V27.4999C27.5 27.9608 27.1275 28.3333 26.6667 28.3333Z" stroke="#FF4D00" stroke-width="2" stroke-miterlimit="10"/>
<path d="M13.6855 18.98L18.6672 25.2075C18.983 25.6033 19.4622 25.8333 19.968 25.8333H22.5005" stroke="#FF4D00" stroke-width="2" stroke-miterlimit="10"/>
<path d="M36.3158 18.98L31.3333 25.2075C31.0175 25.6033 30.5383 25.8333 30.0325 25.8333H27.5" stroke="#FF4D00" stroke-width="2" stroke-miterlimit="10"/>
</svg>
