<svg width="36" height="36" fill="none" xmlns="http://www.w3.org/2000/svg"><path d="M6 10c0-1.886 0-2.828.586-3.414C7.172 6 8.114 6 10 6h16c1.886 0 2.828 0 3.414.586C30 7.172 30 8.114 30 10v8H6v-8zM3 22.5v9m30-9v9" stroke="#FF4D00" stroke-width="2" stroke-linecap="round" stroke-linejoin="round"/><path d="M10.5 16c0-1.886 0-2.828.586-3.414C11.672 12 12.614 12 14.5 12h7c1.886 0 2.828 0 3.414.586.586.586.586 1.528.586 3.414v2h-15v-2zm7.5-4v6M3 22c0-1.886 0-2.828.586-3.414C4.172 18 5.114 18 7 18h22c1.886 0 2.828 0 3.414.586C33 19.172 33 20.114 33 22v3.5H3V22z" stroke="#FF4D00" stroke-width="2" stroke-linecap="round" stroke-linejoin="round"/></svg>