<svg width="25" height="24" fill="none" xmlns="http://www.w3.org/2000/svg"><path fill-rule="evenodd" clip-rule="evenodd" d="M10.5 3h-.073c-1.824 0-3.293 0-4.45.155-1.2.162-2.21.507-3.013 1.31-.802.802-1.147 1.813-1.309 3.013C1.5 8.634 1.5 10.103 1.5 11.927v.146c0 1.824 0 3.293.155 4.45.162 1.2.507 2.21 1.31 3.012.802.803 1.813 1.148 3.013 1.31C7.134 21 8.603 21 10.427 21h4.146c1.824 0 3.293 0 4.45-.155 1.2-.162 2.21-.507 3.012-1.31.803-.802 1.148-1.813 1.31-3.013.155-1.156.155-2.625.155-4.449v-.146c0-1.824 0-3.293-.155-4.45-.162-1.2-.507-2.21-1.31-3.013-.802-.802-1.813-1.147-3.013-1.309C17.866 3 16.397 3 14.573 3H10.5zM4.379 5.879c.369-.37.887-.61 1.865-.741C7.251 5.002 8.586 5 10.5 5h4c1.914 0 3.249.002 4.256.138.978.131 1.496.372 1.865.74.37.37.61.888.742 1.866.135 1.007.137 2.342.137 4.256 0 1.914-.002 3.249-.137 4.256-.132.978-.373 1.496-.742 1.865-.369.37-.887.61-1.865.742-1.007.135-2.342.137-4.256.137h-4c-1.914 0-3.249-.002-4.256-.137-.978-.132-1.496-.373-1.865-.742-.37-.369-.61-.887-.741-1.865C3.502 15.249 3.5 13.914 3.5 12c0-1.914.002-3.249.138-4.256.131-.978.372-1.496.74-1.865zm2.676 1.289a1 1 0 00-1.11 1.664l6 4a1 1 0 001.11 0l6-4a1 1 0 00-1.11-1.664l-5.445 3.63-5.445-3.63z" fill="#333"/></svg>