<svg width="24" height="24" fill="none" xmlns="http://www.w3.org/2000/svg"><path fill-rule="evenodd" clip-rule="evenodd" d="M10 3h-.073c-1.824 0-3.293 0-4.45.155-1.2.162-2.21.507-3.013 1.31-.802.802-1.147 1.813-1.309 3.013C1 8.634 1 10.103 1 11.927v.146c0 1.824 0 3.293.155 4.45.162 1.2.507 2.21 1.31 3.012.802.803 1.813 1.148 3.013 1.31C6.634 21 8.103 21 9.927 21h4.146c1.824 0 3.293 0 4.45-.155 1.2-.162 2.21-.507 3.012-1.31.803-.802 1.148-1.813 1.31-3.013.155-1.156.155-2.625.155-4.449v-.146c0-1.824 0-3.293-.155-4.45-.162-1.2-.507-2.21-1.31-3.013-.802-.802-1.813-1.147-3.013-1.309C17.366 3 15.897 3 14.073 3H10zM3.879 5.879c.369-.37.887-.61 1.865-.741C6.751 5.002 8.086 5 10 5h4c1.914 0 3.249.002 4.256.138.978.131 1.496.372 1.865.74.37.37.61.888.742 1.866C20.998 8.751 21 10.086 21 12c0 1.914-.002 3.249-.137 4.256-.132.978-.373 1.496-.742 1.865-.369.37-.887.61-1.865.742-1.007.135-2.342.137-4.256.137h-4c-1.914 0-3.249-.002-4.256-.137-.978-.132-1.496-.373-1.865-.742-.37-.369-.61-.887-.741-1.865C3.002 15.249 3 13.914 3 12c0-1.914.002-3.249.138-4.256.131-.978.372-1.496.74-1.865zm2.676 1.289a1 1 0 00-1.11 1.664l6 4a1 1 0 001.11 0l6-4a1 1 0 00-1.11-1.664L12 10.798l-5.445-3.63z" fill="#FF4D00"/></svg>