<svg width="16" height="16" fill="none" xmlns="http://www.w3.org/2000/svg"><path fill-rule="evenodd" clip-rule="evenodd" d="M6.666 2.167h-.093c-1.151 0-1.832 0-2.405.153A4.5 4.5 0 00.986 5.502C.833 6.075.833 6.756.833 7.906v.188c0 1.15 0 1.831.153 2.404a4.5 4.5 0 003.182 3.182c.573.154 1.254.154 2.405.153h2.854c1.15 0 1.831 0 2.404-.153a4.5 4.5 0 003.182-3.182c.153-.573.153-1.254.153-2.404v-.188c0-1.15 0-1.831-.153-2.404a4.5 4.5 0 00-3.182-3.182c-.573-.153-1.254-.153-2.404-.153H6.666zM4.427 3.286c.43-.115.967-.12 2.24-.12h2.666c1.272 0 1.81.005 2.24.12a3.5 3.5 0 012.474 2.475c.115.429.12.967.12 2.24 0 1.271-.005 1.81-.12 2.238a3.5 3.5 0 01-2.475 2.475c-.429.115-.967.12-2.239.12H6.666c-1.272 0-1.81-.005-2.239-.12a3.5 3.5 0 01-2.475-2.475C1.837 9.81 1.833 9.272 1.833 8c0-1.272.004-1.81.12-2.24a3.5 3.5 0 012.474-2.474zm-.15 1.631a.5.5 0 10-.555.832l4 2.667a.5.5 0 00.555 0l4-2.667a.5.5 0 10-.555-.832L8 7.4 4.277 4.917z" fill="#8E8E8E"/></svg>