<svg width="16" height="16" fill="none" xmlns="http://www.w3.org/2000/svg"><path fill-rule="evenodd" clip-rule="evenodd" d="M0 14.465c0-.402.326-.728.727-.728h14.546a.727.727 0 110 1.455H.727A.727.727 0 010 14.465z" fill="#FF4D00"/><path fill-rule="evenodd" clip-rule="evenodd" d="M7.272 6.384c0-.402.326-.727.728-.727h6.464c.402 0 .727.325.727.727v8.08a.727.727 0 01-1.454 0V7.112h-5.01v7.354a.727.727 0 01-1.455 0V6.384z" fill="#FF4D00"/><path fill-rule="evenodd" clip-rule="evenodd" d="M11.232 8.889c.402 0 .727.326.727.727v4.849a.727.727 0 01-1.454 0V9.616c0-.401.325-.727.727-.727zM.809 1.535c0-.401.325-.727.727-.727h11.313c.402 0 .727.326.727.727v4.849a.727.727 0 01-1.454 0V2.263H2.263v12.202a.727.727 0 01-1.454 0V1.535z" fill="#FF4D00"/><path fill-rule="evenodd" clip-rule="evenodd" d="M4.768 10.505c.402 0 .728.326.728.727v.011a.727.727 0 11-1.455 0v-.01c0-.402.326-.728.727-.728zm0-3.232c.402 0 .728.325.728.727v.01a.727.727 0 11-1.455 0V8c0-.402.326-.727.727-.727zm0-3.233c.402 0 .728.326.728.728v.01a.727.727 0 11-1.455 0v-.01c0-.402.326-.727.727-.727z" fill="#FF4D00"/></svg>