<svg width="16" height="16" fill="none" xmlns="http://www.w3.org/2000/svg"><g clip-path="url(#clip0_120_278)"><path d="M16 6.483v6.184A3.337 3.337 0 0112.667 16H12a.667.667 0 110-1.333h.667a2 2 0 002-2V6.483a2.001 2.001 0 00-.882-1.658L9.12 1.677a1.986 1.986 0 00-2.238 0L2.215 4.825a2 2 0 00-.882 1.658v6.184a2 2 0 002 2H4A.666.666 0 114 16h-.667A3.337 3.337 0 010 12.667V6.483A3.329 3.329 0 011.467 3.72L6.133.57a3.32 3.32 0 013.73 0l4.666 3.15A3.333 3.333 0 0116 6.483zm-3.333 3.522a4.635 4.635 0 01-1.367 3.3l-2.343 2.292a1.375 1.375 0 01-1.914 0L4.705 13.31a4.667 4.667 0 117.962-3.305zm-1.334 0a3.333 3.333 0 10-5.69 2.357l2.333 2.281 2.387-2.287a3.306 3.306 0 00.97-2.35zM10 10a2 2 0 11-4 0 2 2 0 014 0z" fill="#8E8E8E"/></g><defs><clipPath id="clip0_120_278"><path fill="#fff" d="M0 0h16v16H0z"/></clipPath></defs></svg>