<svg width="25" height="24" fill="none" xmlns="http://www.w3.org/2000/svg"><path fill-rule="evenodd" clip-rule="evenodd" d="M8.003 13.002a.5.5 0 00-.5.5v3a.5.5 0 001 0v-.5H9a1.5 1.5 0 000-3h-.997zm.997 2h-.497v-1H9a.5.5 0 110 1z" fill="#fff"/><path d="M15.498 13.501a.5.5 0 01.5-.499h1.505a.5.5 0 110 1h-1.006l-.001 1.002h1.007a.5.5 0 010 1h-1.007l.002.497a.5.5 0 01-1 .002l-.003-.998v-.002l.003-2.002z" fill="#fff"/><path fill-rule="evenodd" clip-rule="evenodd" d="M12 13.002a.5.5 0 00-.5.5v3a.5.5 0 00.5.5h.498a2 2 0 000-4H12zm.5 3v-2a1 1 0 010 2z" fill="#fff"/><path fill-rule="evenodd" clip-rule="evenodd" d="M12.5 8V2h-6a2 2 0 00-2 2v6.668c-.591.281-1 .884-1 1.582v5.5c0 .698.409 1.3 1 1.582V20a2 2 0 002 2h12a2 2 0 002-2v-.668c.591-.281 1-.884 1-1.582v-5.5c0-.698-.409-1.3-1-1.582V10h-6a2 2 0 01-2-2zm-7.25 4a.25.25 0 00-.25.25v5.5c0 .138.112.25.25.25h14.5a.25.25 0 00.25-.25v-5.5a.25.25 0 00-.25-.25H5.25z" fill="#fff"/><path d="M14 8V2.5l6 6h-5.5A.5.5 0 0114 8z" fill="#fff"/></svg>