<svg width="24" height="24" fill="none" xmlns="http://www.w3.org/2000/svg"><path fill-rule="evenodd" clip-rule="evenodd" d="M5.452 2a93.282 93.282 0 00.144 0c.322 0 .602 0 .864.046a3 3 0 012.218 1.732c.108.242.176.514.254.827l.017.067.413 1.654.012.046c.138.552.26 1.038.318 1.454.064.45.07.902-.084 1.372-.153.47-.422.832-.74 1.158-.292.302-.677.624-1.113.989l-.036.03-1.453 1.214a13.626 13.626 0 005.145 5.145l1.214-1.453.03-.036c.365-.436.687-.821.989-1.114.326-.317.688-.587 1.158-.74.47-.152.921-.147 1.372-.084.416.06.902.181 1.454.32l.046.01 1.654.414.067.017c.313.078.585.146.827.254a3 3 0 011.732 2.218c.046.262.046.542.046.864v.144c0 .373 0 .702-.072 1.028-.265 1.187-1.354 2.175-2.562 2.323-.33.041-.616.013-.932-.018a8.374 8.374 0 00-.055-.005c-2.666-.26-5.072-.927-7.172-1.983-3.122-1.568-5.532-3.978-7.1-7.1-1.056-2.1-1.723-4.506-1.983-7.172l-.005-.055c-.031-.316-.06-.602-.019-.933.15-1.207 1.137-2.296 2.324-2.56C4.75 1.998 5.079 2 5.452 2zm7.815 16.631c1.578.637 3.35 1.063 5.307 1.254.393.038.46.04.548.03.368-.046.773-.413.854-.775.018-.083.024-.178.024-.667 0-.43-.004-.52-.015-.585a1 1 0 00-.578-.74c-.06-.027-.146-.052-.564-.156l-1.654-.414c-.611-.153-.996-.248-1.296-.29-.278-.04-.395-.02-.472.005-.077.025-.184.078-.384.273-.218.212-.473.515-.877.998l-.893 1.067zm-7.899-7.898l1.068-.893c.483-.404.786-.659.998-.877.195-.2.248-.307.273-.384.025-.077.045-.194.005-.472-.042-.3-.137-.685-.29-1.296l-.414-1.654c-.104-.418-.13-.504-.156-.564a1 1 0 00-.74-.578C6.047 4.004 5.957 4 5.527 4c-.49 0-.584.005-.667.024-.362.08-.73.486-.775.854-.01.088-.009.155.03.548.19 1.957.616 3.73 1.253 5.307z" fill="#FF4D00"/></svg>