<svg width="24" height="24" fill="none" xmlns="http://www.w3.org/2000/svg"><path fill-rule="evenodd" clip-rule="evenodd" d="M5 10.148c0-2.45.893-4.213 2.171-5.37C8.466 3.606 10.218 3 12 3c1.782 0 3.534.606 4.829 1.778C18.107 5.935 19 7.698 19 10.148c0 3.175-1.91 5.977-3.91 8.022-.735.75-1.18 1.197-1.627 1.484-.387.248-.793.384-1.463.384s-1.076-.136-1.463-.384c-.447-.287-.892-.733-1.626-1.484C6.91 16.125 5 13.324 5 10.148zm16 0c0-2.98-1.107-5.293-2.829-6.852C16.466 1.752 14.218 1 12 1c-2.218 0-4.466.752-6.171 2.296C4.107 4.855 3 7.167 3 10.148c0 3.964 2.356 7.249 4.481 9.42l.059.06c.657.673 1.257 1.286 1.918 1.71.74.475 1.53.7 2.542.7 1.013 0 1.802-.226 2.542-.7.661-.424 1.261-1.037 1.918-1.71l.06-.06c2.124-2.171 4.48-5.456 4.48-9.42zM10 10a2 2 0 114 0 2 2 0 01-4 0zm2-4a4 4 0 100 8 4 4 0 000-8z" fill="#FF4D00"/></svg>