<svg width="17" height="16" fill="none" xmlns="http://www.w3.org/2000/svg"><path fill-rule="evenodd" clip-rule="evenodd" d="M11.362.862c.26-.26.682-.26.943 0l3.333 3.333c.26.26.26.683 0 .943l-10 10a.667.667 0 01-.943 0l-3.333-3.333a.667.667 0 010-.943l1.666-1.667L9.695 2.53 11.362.862zm-1.196 3.08l-.723.725 1.528 1.528a.667.667 0 11-.943.943L8.5 5.609l-.724.724.862.862a.667.667 0 11-.943.943l-.862-.862L6.11 8l1.529 1.529a.667.667 0 01-.943.942l-1.53-1.528-.723.724.862.862a.667.667 0 11-.943.942L3.5 10.61l-.724.724 2.39 2.39 9.058-9.056-2.39-2.39-.725.723.862.862a.667.667 0 11-.943.943l-.862-.862z" fill="#FF4D00"/></svg>