<svg width="17" height="16" fill="none" xmlns="http://www.w3.org/2000/svg"><path fill-rule="evenodd" clip-rule="evenodd" d="M6.953 1.62c.849-.602 1.987-.953 3.213-.953 1.227 0 2.365.35 3.214.952.848.6 1.453 1.492 1.453 2.548v10.5a.667.667 0 01-1.333 0v-10.5c0-.51-.29-1.035-.89-1.46-.6-.424-1.46-.707-2.444-.707-.982 0-1.844.283-2.443.707-.552.391-.841.867-.884 1.337.684.09 1.313.317 1.819.654.662.441 1.175 1.124 1.175 1.969v.666A.667.667 0 019.166 8h-6a.667.667 0 01-.666-.667v-.666c0-.845.513-1.528 1.175-1.97.507-.337 1.14-.565 1.828-.654.045-1.002.635-1.847 1.45-2.424zM4.415 5.806c-.424.283-.582.6-.582.86H8.5c0-.26-.158-.577-.582-.86-.42-.28-1.036-.474-1.752-.474-.715 0-1.332.195-1.751.474zm1.751 2.86c.369 0 .667.298.667.666v.334a.667.667 0 01-1.333 0v-.334c0-.368.298-.666.666-.666zm-2.381.05a.667.667 0 01.398.854l-.114.314a.667.667 0 01-1.253-.456l.114-.314a.667.667 0 01.855-.398zM6.166 11c.369 0 .667.298.667.667v.666a.667.667 0 11-1.333 0v-.666c0-.369.298-.667.666-.667zm-3.324.06a.667.667 0 01.398.855l-.228.626a.667.667 0 11-1.253-.456l.228-.626a.667.667 0 01.855-.399zm3.324 2.607c.369 0 .667.298.667.666v.334a.667.667 0 11-1.333 0v-.334c0-.368.298-.666.666-.666zm-4.381.05a.667.667 0 01.398.854l-.114.314a.667.667 0 01-1.253-.456l.114-.314a.667.667 0 01.855-.398z" fill="#FF4D00"/></svg>