<svg width="17" height="16" fill="none" xmlns="http://www.w3.org/2000/svg"><path fill-rule="evenodd" clip-rule="evenodd" d="M4.5 3.667A.333.333 0 004.166 4v3H5.5c0-.92.746-1.667 1.666-1.667H10.5c.921 0 1.667.747 1.667 1.667H13.5V4a.333.333 0 00-.333-.333H4.5zm10.333 3.366V4c0-.92-.746-1.667-1.667-1.667H4.5c-.92 0-1.667.747-1.667 1.667v3.033A1.667 1.667 0 001.5 8.667v3c0 .368.298.666.666.666V13A.667.667 0 103.5 13v-.667h10.666V13a.667.667 0 101.333 0v-.667a.667.667 0 00.667-.666v-3c0-.807-.572-1.48-1.333-1.634zm0 3.967V8.667a.333.333 0 00-.334-.334H3.166a.333.333 0 00-.333.334V11h12zm-8-4h4a.333.333 0 00-.334-.333H7.166A.333.333 0 006.833 7z" fill="#FF4D00"/></svg>