<svg width="24" height="24" fill="none" xmlns="http://www.w3.org/2000/svg"><g clip-path="url(#clip0_179_2324)"><path d="M20.387 3.488A11.8 11.8 0 0011.982 0C5.432 0 .102 5.335.1 11.892a11.873 11.873 0 001.586 5.945L0 24l6.299-1.654a11.862 11.862 0 005.678 1.448h.005c6.548 0 11.879-5.336 11.882-11.892a11.828 11.828 0 00-3.477-8.414zm-8.405 18.297h-.004a9.855 9.855 0 01-5.027-1.378l-.36-.214-3.738.981.998-3.647-.235-.374a9.867 9.867 0 01-1.51-5.26c.002-5.45 4.432-9.884 9.88-9.884a9.806 9.806 0 016.982 2.899 9.83 9.83 0 012.89 6.993c-.003 5.45-4.433 9.884-9.876 9.884z" fill="#E0E0E0"/><path d="M.547 23.316l1.609-5.88A11.338 11.338 0 01.642 11.76C.644 5.504 5.73.413 11.98.413A11.26 11.26 0 0120 3.741a11.285 11.285 0 013.318 8.03c-.002 6.257-5.089 11.348-11.338 11.348h-.005c-1.898 0-3.762-.477-5.418-1.38l-6.01 1.576z" fill="url(#paint0_linear_179_2324)"/><path fill-rule="evenodd" clip-rule="evenodd" d="M9.046 6.843c-.22-.49-.45-.499-.66-.507-.171-.008-.367-.007-.562-.007-.196 0-.514.073-.783.367-.27.294-1.027 1.005-1.027 2.45 0 1.446 1.051 2.843 1.198 3.04.147.196 2.03 3.257 5.013 4.435 2.48.979 2.984.784 3.522.735.538-.049 1.736-.71 1.98-1.397.245-.686.245-1.274.172-1.397-.073-.122-.269-.196-.562-.343-.294-.146-1.737-.857-2.006-.955-.269-.098-.464-.147-.66.147s-.758.955-.93 1.151c-.17.197-.342.221-.635.074-.294-.147-1.239-.457-2.36-1.458-.873-.779-1.462-1.74-1.633-2.035-.171-.294-.018-.453.129-.6.132-.131.294-.342.44-.514.147-.172.196-.294.293-.49.098-.196.05-.368-.024-.515-.073-.147-.644-1.6-.905-2.18z" fill="#fff"/><path d="M20.291 3.45A11.665 11.665 0 0011.983.002C5.509.002.24 5.276.237 11.758c0 2.072.54 4.094 1.568 5.877L.139 23.727l6.226-1.635a11.727 11.727 0 005.613 1.431h.005c6.473 0 11.743-5.274 11.745-11.756a11.692 11.692 0 00-3.437-8.317zm-8.308 18.088h-.004a9.74 9.74 0 01-4.969-1.363l-.356-.211-3.695.97.986-3.606-.232-.37a9.754 9.754 0 01-1.493-5.2c.002-5.387 4.382-9.77 9.767-9.77a9.693 9.693 0 016.901 2.865 9.718 9.718 0 012.857 6.913c-.002 5.388-4.382 9.772-9.762 9.772z" fill="#fff"/></g><defs><linearGradient id="paint0_linear_179_2324" x1="11.933" y1="23.316" x2="11.933" y2=".413" gradientUnits="userSpaceOnUse"><stop stop-color="#20B038"/><stop offset="1" stop-color="#60D66A"/></linearGradient><clipPath id="clip0_179_2324"><path fill="#fff" d="M0 0h23.865v24H0z"/></clipPath></defs></svg>