<svg width="24" height="24" fill="none" xmlns="http://www.w3.org/2000/svg"><g clip-path="url(#clip0_85_328)"><path d="M20.388 3.488A11.8 11.8 0 0011.983 0C5.433 0 .103 5.335.1 11.892a11.873 11.873 0 001.586 5.945L0 24l6.3-1.654a11.862 11.862 0 005.678 1.448h.005c6.548 0 11.879-5.336 11.882-11.892a11.828 11.828 0 00-3.477-8.414zm-8.405 18.297h-.004a9.855 9.855 0 01-5.027-1.378l-.36-.214-3.738.981.998-3.647-.235-.374a9.868 9.868 0 01-1.51-5.26c.002-5.45 4.432-9.884 9.88-9.884a9.806 9.806 0 016.981 2.899 9.831 9.831 0 012.89 6.993c-.002 5.45-4.432 9.884-9.875 9.884z" fill="#E0E0E0"/><path fill-rule="evenodd" clip-rule="evenodd" d="M9.046 6.843c-.22-.49-.45-.499-.66-.507-.171-.008-.367-.007-.562-.007-.196 0-.514.073-.783.367-.27.294-1.027 1.005-1.027 2.45 0 1.446 1.051 2.843 1.198 3.04.147.196 2.03 3.257 5.013 4.435 2.48.979 2.984.784 3.522.735.538-.049 1.736-.71 1.98-1.397.245-.686.245-1.274.172-1.397-.073-.122-.269-.196-.562-.343-.294-.146-1.737-.857-2.006-.955-.269-.098-.464-.147-.66.147s-.758.955-.93 1.151c-.17.197-.342.221-.635.074-.294-.147-1.239-.457-2.36-1.458-.873-.779-1.462-1.74-1.633-2.035-.171-.294-.018-.453.129-.6.132-.131.294-.342.44-.514.147-.172.196-.294.293-.49.098-.196.05-.368-.024-.515-.073-.147-.644-1.6-.905-2.18z" fill="#fff"/><path d="M20.29 3.45A11.665 11.665 0 0011.982.002C5.508.002.239 5.276.236 11.758c0 2.072.54 4.094 1.568 5.877L.138 23.727l6.226-1.635a11.727 11.727 0 005.613 1.431h.005c6.473 0 11.743-5.274 11.745-11.756A11.692 11.692 0 0020.29 3.45zm-8.308 18.088h-.004a9.74 9.74 0 01-4.969-1.363l-.356-.211-3.695.97.986-3.606-.232-.37a9.754 9.754 0 01-1.493-5.2c.002-5.387 4.382-9.77 9.767-9.77a9.693 9.693 0 016.901 2.865 9.718 9.718 0 012.857 6.913c-.002 5.388-4.381 9.772-9.762 9.772z" fill="#fff"/></g><defs><clipPath id="clip0_85_328"><path fill="#fff" d="M0 0h23.865v24H0z"/></clipPath></defs></svg>