<svg width="50" height="50" fill="none" xmlns="http://www.w3.org/2000/svg"><g clip-path="url(#clip0_174_2706)"><path d="M17.377 44.167c-.34.519-.69 1.03-1.049 1.536m3.59-5.843a52.143 52.143 0 01-1.201 2.155m3.301-6.665a51.38 51.38 0 01-.99 2.27m5.528-4.995a54.969 54.969 0 01-1.08 3.055m3.045-11.404a54.647 54.647 0 01-1.375 6.374M9.122 17.604a35.116 35.116 0 01-.296 3.129m-.315 1.87c-.097.495-.204.986-.322 1.473m17.318-2.409a51.395 51.395 0 01-2.589 11.318" stroke="#FF4D00" stroke-width="2" stroke-miterlimit="10"/><path d="M2.79 41.332a38.188 38.188 0 009.71-25.499V15h-5a.834.834 0 01-.59-1.423L18.579 1.909a.83.83 0 011.175 0l11.668 11.668A.834.834 0 0130.833 15h-5v.833c0 .839-.02 1.673-.06 2.502" stroke="#FF4D00" stroke-width="2" stroke-miterlimit="10"/><path d="M42.499 22.698v23.135l.919.307a2.312 2.312 0 011.58 2.193c0 .46-.373.834-.833.834H40a1.667 1.667 0 01-1.667-1.667V33.333m0-18.333c2.3 0 4.166-2.052 4.166-4.583 0-2.532-1.865-4.584-4.166-4.584s-4.167 2.052-4.167 4.584c0 2.53 1.866 4.583 4.167 4.583z" stroke="#8E8E8E" stroke-width="2" stroke-miterlimit="10"/><path d="M35.95 40.203l-1.925 7.701a1.667 1.667 0 01-1.617 1.263h-4.076a.834.834 0 01-.833-.834c0-.979.666-1.833 1.616-2.07l1.092-.274 3.958-15.83v-8.492H25a1.666 1.666 0 110-3.334h15.833a5 5 0 015 5v9.584c0 1.15-.932 2.083-2.083 2.083H42.5" stroke="#8E8E8E" stroke-width="2" stroke-miterlimit="10"/><path d="M20 5.833h-1.666V7.5h1.667V5.833zm0 3.334h-1.666v1.666h1.667V9.167zm0 3.333h-1.666v1.667h1.667V12.5zm-6.667 20h-1.667v1.667h1.667V32.5zM15 29.167h-1.666v1.666h1.667v-1.666zm-3.333 6.666H10V37.5h1.667v-1.667z" fill="#FF4D00"/></g><defs><clipPath id="clip0_174_2706"><path fill="#fff" d="M0 0h50v50H0z"/></clipPath></defs></svg>