<svg width="50" height="50" fill="none" xmlns="http://www.w3.org/2000/svg"><path d="M40.718 12.632A19.91 19.91 0 0145 25c0 11.046-8.954 20-20 20S5 36.046 5 25 13.954 5 25 5c3.898 0 7.536 1.115 10.61 3.043M37.64 9.5c.465.377.91.777 1.338 1.196M5.373 12.377c.316-.49.648-.966 1-1.43m1.609-1.91a23.265 23.265 0 0117.019-7.37m19.627 35.956c-.316.49-.65.966-1 1.43m-1.61 1.909A23.265 23.265 0 0125 48.333" stroke="#8E8E8E" stroke-width="2" stroke-miterlimit="10"/><path d="M31.96 13.996C30.467 8.576 27.906 5 25 5c-2.91 0-5.47 3.576-6.96 8.996m13.112 24.496c-1.525 4-3.717 6.508-6.153 6.508-2.436 0-4.628-2.508-6.151-6.508m-9.075-8.09C6.797 28.948 5 27.062 5 25c0-2.062 1.797-3.948 4.773-5.403m30.454 0C43.203 21.052 45 22.938 45 25c0 2.062-1.797 3.948-4.773 5.402" stroke="#8E8E8E" stroke-width="2" stroke-miterlimit="10"/><path d="M35 35H15c-.92 0-1.666-.747-1.666-1.667V20c0-.92.747-1.667 1.667-1.667h20c.92 0 1.666.747 1.666 1.667v13.333c0 .92-.746 1.667-1.666 1.667zM20.834 18.333v-1.666a2.5 2.5 0 012.5-2.5h3.333a2.5 2.5 0 012.5 2.5v1.666" stroke="#FF4D00" stroke-width="2" stroke-miterlimit="10"/><path d="M26.667 28.333h-3.334a.833.833 0 01-.833-.833v-3.333c0-.461.372-.834.833-.834h3.334c.46 0 .833.373.833.834V27.5c0 .46-.372.833-.833.833zM13.685 18.98l4.982 6.227c.316.396.795.626 1.301.626H22.5m13.816-6.853l-4.983 6.227a1.664 1.664 0 01-1.3.626H27.5" stroke="#FF4D00" stroke-width="2" stroke-miterlimit="10"/></svg>