<svg width="36" height="36" viewBox="0 0 36 36" fill="none" xmlns="http://www.w3.org/2000/svg">
<path d="M6 27V30C6 30.8284 6.67157 31.5 7.5 31.5H10.5C11.3284 31.5 12 30.8284 12 30V27" stroke="#D9D9D9" stroke-width="3" stroke-linecap="round" stroke-linejoin="round"/>
<path d="M24 27V30C24 30.8284 24.6716 31.5 25.5 31.5H28.5C29.3284 31.5 30 30.8284 30 30V27" stroke="#D9D9D9" stroke-width="3" stroke-linecap="round" stroke-linejoin="round"/>
<path d="M10.5 4.5C8.01472 4.5 6 6.51472 6 9V27H30V9C30 6.51472 27.9853 4.5 25.5 4.5H10.5Z" stroke="#D9D9D9" stroke-width="3" stroke-linecap="round" stroke-linejoin="round"/>
<path d="M6 10.5H30" stroke="#D9D9D9" stroke-width="3" stroke-linecap="round" stroke-linejoin="round"/>
<path d="M6 16.5H30" stroke="#D9D9D9" stroke-width="3" stroke-linecap="round" stroke-linejoin="round"/>
<path d="M12 21.9375H12.015" stroke="#D9D9D9" stroke-width="3" stroke-linecap="round" stroke-linejoin="round"/>
<path d="M24 21.9375H24.015" stroke="#D9D9D9" stroke-width="3" stroke-linecap="round" stroke-linejoin="round"/>
</svg>
