<svg width="24" height="24" viewBox="0 0 24 24" fill="none" xmlns="http://www.w3.org/2000/svg">
<path fill-rule="evenodd" clip-rule="evenodd" d="M10 3L9.92684 3C8.10338 2.99997 6.63362 2.99995 5.47767 3.15537C4.27752 3.31672 3.26702 3.66191 2.46447 4.46447C1.66191 5.26702 1.31672 6.27752 1.15537 7.47767C0.999951 8.63362 0.999973 10.1034 1 11.9268L1 12L1 12.0732C0.999973 13.8966 0.999951 15.3664 1.15537 16.5223C1.31672 17.7225 1.66191 18.733 2.46447 19.5355C3.26702 20.3381 4.27752 20.6833 5.47767 20.8446C6.63363 21.0001 8.1034 21 9.92686 21H10H14H14.0731C15.8966 21 17.3664 21.0001 18.5223 20.8446C19.7225 20.6833 20.733 20.3381 21.5355 19.5355C22.3381 18.733 22.6833 17.7225 22.8446 16.5223C23.0001 15.3664 23 13.8966 23 12.0731V12V11.9269C23 10.1034 23.0001 8.63363 22.8446 7.47767C22.6833 6.27752 22.3381 5.26702 21.5355 4.46447C20.733 3.66191 19.7225 3.31672 18.5223 3.15537C17.3664 2.99995 15.8966 2.99997 14.0732 3L14 3H10ZM3.87868 5.87868C4.2477 5.50966 4.76579 5.26907 5.74416 5.13753C6.7513 5.00213 8.08611 5 10 5H14C15.9139 5 17.2487 5.00213 18.2558 5.13753C19.2342 5.26907 19.7523 5.50966 20.1213 5.87868C20.4903 6.2477 20.7309 6.76579 20.8625 7.74416C20.9979 8.7513 21 10.0861 21 12C21 13.9139 20.9979 15.2487 20.8625 16.2558C20.7309 17.2342 20.4903 17.7523 20.1213 18.1213C19.7523 18.4903 19.2342 18.7309 18.2558 18.8625C17.2487 18.9979 15.9139 19 14 19H10C8.08611 19 6.7513 18.9979 5.74416 18.8625C4.76579 18.7309 4.2477 18.4903 3.87868 18.1213C3.50966 17.7523 3.26907 17.2342 3.13753 16.2558C3.00213 15.2487 3 13.9139 3 12C3 10.0861 3.00213 8.7513 3.13753 7.74416C3.26907 6.76579 3.50966 6.2477 3.87868 5.87868ZM6.5547 7.16795C6.09517 6.8616 5.4743 6.98577 5.16795 7.4453C4.8616 7.90483 4.98577 8.5257 5.4453 8.83205L11.4453 12.8321C11.7812 13.056 12.2188 13.056 12.5547 12.8321L18.5547 8.83205C19.0142 8.5257 19.1384 7.90483 18.8321 7.4453C18.5257 6.98577 17.9048 6.8616 17.4453 7.16795L12 10.7982L6.5547 7.16795Z" fill="#FF4D00"/>
</svg>
