<svg width="16" height="16" viewBox="0 0 16 16" fill="none" xmlns="http://www.w3.org/2000/svg">
<path fill-rule="evenodd" clip-rule="evenodd" d="M6.66635 2.16676L6.57275 2.16675C5.42199 2.16665 4.74125 2.16658 4.16833 2.32009C2.61542 2.7362 1.40245 3.94916 0.986353 5.50207C0.832841 6.07499 0.832905 6.75573 0.833013 7.90649L0.833019 8.00009L0.833013 8.09369C0.832905 9.24445 0.832841 9.9252 0.986353 10.4981C1.40245 12.051 2.61542 13.264 4.16833 13.6801C4.74125 13.8336 5.42199 13.8335 6.57275 13.8334L6.66635 13.8334H9.33302L9.42662 13.8334C10.5774 13.8335 11.2581 13.8336 11.831 13.6801C13.384 13.264 14.5969 12.051 15.013 10.4981C15.1665 9.9252 15.1665 9.24445 15.1664 8.09369L15.1664 8.00009L15.1664 7.90649C15.1665 6.75573 15.1665 6.07499 15.013 5.50207C14.5969 3.94916 13.384 2.7362 11.831 2.32009C11.2581 2.16658 10.5774 2.16665 9.42663 2.16675L9.33302 2.16676H6.66635ZM4.42715 3.28602C4.85621 3.17105 5.3942 3.16676 6.66635 3.16676H9.33302C10.6052 3.16676 11.1432 3.17105 11.5722 3.28602C12.78 3.60965 13.7235 4.55307 14.0471 5.76089C14.1621 6.18995 14.1664 6.72794 14.1664 8.00009C14.1664 9.27224 14.1621 9.81024 14.0471 10.2393C13.7235 11.4471 12.78 12.3905 11.5722 12.7142C11.1432 12.8291 10.6052 12.8334 9.33302 12.8334H6.66635C5.3942 12.8334 4.85621 12.8291 4.42715 12.7142C3.21933 12.3905 2.27591 11.4471 1.95228 10.2393C1.83731 9.81024 1.83302 9.27224 1.83302 8.00009C1.83302 6.72794 1.83731 6.18995 1.95228 5.76089C2.27591 4.55307 3.21933 3.60965 4.42715 3.28602ZM4.27704 4.9174C4.04727 4.76422 3.73684 4.82631 3.58366 5.05608C3.43048 5.28584 3.49257 5.59627 3.72234 5.74945L7.72234 8.41612C7.89029 8.52808 8.10909 8.52808 8.27704 8.41612L12.277 5.74945C12.5068 5.59627 12.5689 5.28584 12.4157 5.05608C12.2625 4.82631 11.9521 4.76422 11.7223 4.9174L7.99969 7.39917L4.27704 4.9174Z" fill="#8E8E8E"/>
</svg>
