<svg width="25" height="24" viewBox="0 0 25 24" fill="none" xmlns="http://www.w3.org/2000/svg">
<path fill-rule="evenodd" clip-rule="evenodd" d="M10.5 3L10.4268 3C8.60338 2.99997 7.13362 2.99995 5.97767 3.15536C4.77752 3.31672 3.76702 3.66191 2.96447 4.46447C2.16191 5.26702 1.81672 6.27752 1.65536 7.47767C1.49995 8.63362 1.49997 10.1034 1.5 11.9268L1.5 12L1.5 12.0732C1.49997 13.8966 1.49995 15.3664 1.65536 16.5223C1.81672 17.7225 2.16191 18.733 2.96447 19.5355C3.76702 20.3381 4.77752 20.6833 5.97766 20.8446C7.13363 21 8.6034 21 10.4269 21H10.5H14.5H14.5731C16.3966 21 17.8664 21 19.0223 20.8446C20.2225 20.6833 21.233 20.3381 22.0355 19.5355C22.8381 18.733 23.1833 17.7225 23.3446 16.5223C23.5 15.3664 23.5 13.8966 23.5 12.0731V12V11.9269C23.5 10.1034 23.5 8.63363 23.3446 7.47767C23.1833 6.27752 22.8381 5.26702 22.0355 4.46447C21.233 3.66191 20.2225 3.31672 19.0223 3.15536C17.8664 2.99995 16.3966 2.99997 14.5732 3L14.5 3H10.5ZM4.37868 5.87868C4.7477 5.50966 5.26579 5.26907 6.24416 5.13753C7.2513 5.00212 8.58611 5 10.5 5H14.5C16.4139 5 17.7487 5.00212 18.7558 5.13753C19.7342 5.26907 20.2523 5.50966 20.6213 5.87868C20.9903 6.2477 21.2309 6.76579 21.3625 7.74416C21.4979 8.75129 21.5 10.0861 21.5 12C21.5 13.9139 21.4979 15.2487 21.3625 16.2558C21.2309 17.2342 20.9903 17.7523 20.6213 18.1213C20.2523 18.4903 19.7342 18.7309 18.7558 18.8625C17.7487 18.9979 16.4139 19 14.5 19H10.5C8.58611 19 7.25129 18.9979 6.24416 18.8625C5.26579 18.7309 4.7477 18.4903 4.37868 18.1213C4.00966 17.7523 3.76907 17.2342 3.63753 16.2558C3.50212 15.2487 3.5 13.9139 3.5 12C3.5 10.0861 3.50212 8.75129 3.63753 7.74416C3.76907 6.76579 4.00966 6.2477 4.37868 5.87868ZM7.0547 7.16795C6.59517 6.8616 5.9743 6.98577 5.66795 7.4453C5.3616 7.90483 5.48577 8.5257 5.9453 8.83205L11.9453 12.8321C12.2812 13.056 12.7188 13.056 13.0547 12.8321L19.0547 8.83205C19.5142 8.5257 19.6384 7.90483 19.3321 7.4453C19.0257 6.98577 18.4048 6.8616 17.9453 7.16795L12.5 10.7981L7.0547 7.16795Z" fill="#333333"/>
</svg>
