<svg width="16" height="16" viewBox="0 0 16 16" fill="none" xmlns="http://www.w3.org/2000/svg">
<path fill-rule="evenodd" clip-rule="evenodd" d="M0 14.4647C0 14.063 0.325606 13.7374 0.727262 13.7374H15.2725C15.6742 13.7374 15.9998 14.063 15.9998 14.4647C15.9998 14.8663 15.6742 15.192 15.2725 15.192H0.727262C0.325606 15.192 0 14.8663 0 14.4647Z" fill="#FF4D00"/>
<path fill-rule="evenodd" clip-rule="evenodd" d="M7.27246 6.38388C7.27246 5.98222 7.59807 5.65662 7.99972 5.65662H14.4643C14.8659 5.65662 15.1915 5.98222 15.1915 6.38388V14.4646C15.1915 14.8662 14.8659 15.1918 14.4643 15.1918C14.0626 15.1918 13.737 14.8662 13.737 14.4646V7.11114H8.72698V14.4646C8.72698 14.8662 8.40138 15.1918 7.99972 15.1918C7.59807 15.1918 7.27246 14.8662 7.27246 14.4646V6.38388Z" fill="#FF4D00"/>
<path fill-rule="evenodd" clip-rule="evenodd" d="M11.2321 8.88892C11.6338 8.88892 11.9594 9.21452 11.9594 9.61618V14.4646C11.9594 14.8662 11.6338 15.1919 11.2321 15.1919C10.8305 15.1919 10.5049 14.8662 10.5049 14.4646V9.61618C10.5049 9.21452 10.8305 8.88892 11.2321 8.88892Z" fill="#FF4D00"/>
<path fill-rule="evenodd" clip-rule="evenodd" d="M0.808594 1.53549C0.808594 1.13383 1.1342 0.808228 1.53586 0.808228H12.8488C13.2505 0.808228 13.5761 1.13383 13.5761 1.53549V6.3839C13.5761 6.78556 13.2505 7.11116 12.8488 7.11116C12.4472 7.11116 12.1216 6.78556 12.1216 6.3839V2.26275H2.26312V14.4646C2.26312 14.8662 1.93751 15.1919 1.53586 15.1919C1.1342 15.1919 0.808594 14.8662 0.808594 14.4646V1.53549Z" fill="#FF4D00"/>
<path fill-rule="evenodd" clip-rule="evenodd" d="M4.76828 10.505C5.16993 10.505 5.49554 10.8306 5.49554 11.2323V11.243C5.49554 11.6447 5.16993 11.9703 4.76828 11.9703C4.36662 11.9703 4.04102 11.6447 4.04102 11.243V11.2323C4.04102 10.8306 4.36662 10.505 4.76828 10.505Z" fill="#FF4D00"/>
<path fill-rule="evenodd" clip-rule="evenodd" d="M4.76828 7.27258C5.16993 7.27258 5.49554 7.59819 5.49554 7.99984V8.01062C5.49554 8.41228 5.16993 8.73788 4.76828 8.73788C4.36662 8.73788 4.04102 8.41228 4.04102 8.01062V7.99984C4.04102 7.59819 4.36662 7.27258 4.76828 7.27258Z" fill="#FF4D00"/>
<path fill-rule="evenodd" clip-rule="evenodd" d="M4.76828 4.04053C5.16993 4.04053 5.49554 4.36613 5.49554 4.76779V4.77856C5.49554 5.18022 5.16993 5.50583 4.76828 5.50583C4.36662 5.50583 4.04102 5.18022 4.04102 4.77856V4.76779C4.04102 4.36613 4.36662 4.04053 4.76828 4.04053Z" fill="#FF4D00"/>
</svg>
