<svg width="19" height="18" viewBox="0 0 19 18" fill="none" xmlns="http://www.w3.org/2000/svg">
<g clip-path="url(#clip0_177_2016)">
<path d="M9.5 1.6207C11.9047 1.6207 12.1895 1.63125 13.1352 1.67344C14.0141 1.71211 14.4887 1.85977 14.8051 1.98281C15.2234 2.14453 15.5258 2.34141 15.8387 2.6543C16.1551 2.9707 16.3484 3.26953 16.5102 3.68789C16.6332 4.0043 16.7809 4.48242 16.8195 5.35781C16.8617 6.30703 16.8723 6.5918 16.8723 8.99297C16.8723 11.3977 16.8617 11.6824 16.8195 12.6281C16.7809 13.507 16.6332 13.9816 16.5102 14.298C16.3484 14.7164 16.1516 15.0187 15.8387 15.3316C15.5223 15.648 15.2234 15.8414 14.8051 16.0031C14.4887 16.1262 14.0105 16.2738 13.1352 16.3125C12.1859 16.3547 11.9012 16.3652 9.5 16.3652C7.09531 16.3652 6.81055 16.3547 5.86484 16.3125C4.98594 16.2738 4.51133 16.1262 4.19492 16.0031C3.77656 15.8414 3.47422 15.6445 3.16133 15.3316C2.84492 15.0152 2.65156 14.7164 2.48984 14.298C2.3668 13.9816 2.21914 13.5035 2.18047 12.6281C2.13828 11.6789 2.12773 11.3941 2.12773 8.99297C2.12773 6.58828 2.13828 6.30351 2.18047 5.35781C2.21914 4.47891 2.3668 4.0043 2.48984 3.68789C2.65156 3.26953 2.84844 2.96719 3.16133 2.6543C3.47773 2.33789 3.77656 2.14453 4.19492 1.98281C4.51133 1.85977 4.98945 1.71211 5.86484 1.67344C6.81055 1.63125 7.09531 1.6207 9.5 1.6207ZM9.5 0C7.05664 0 6.75078 0.0105469 5.79102 0.0527344C4.83477 0.0949219 4.17734 0.249609 3.60781 0.471094C3.01367 0.703125 2.51094 1.00898 2.01172 1.51172C1.50898 2.01094 1.20312 2.51367 0.971094 3.1043C0.749609 3.67734 0.594922 4.33125 0.552734 5.2875C0.510547 6.25078 0.5 6.55664 0.5 9C0.5 11.4434 0.510547 11.7492 0.552734 12.709C0.594922 13.6652 0.749609 14.3227 0.971094 14.8922C1.20312 15.4863 1.50898 15.9891 2.01172 16.4883C2.51094 16.9875 3.01367 17.2969 3.6043 17.5254C4.17734 17.7469 4.83125 17.9016 5.7875 17.9437C6.74727 17.9859 7.05312 17.9965 9.49648 17.9965C11.9398 17.9965 12.2457 17.9859 13.2055 17.9437C14.1617 17.9016 14.8191 17.7469 15.3887 17.5254C15.9793 17.2969 16.482 16.9875 16.9812 16.4883C17.4805 15.9891 17.7898 15.4863 18.0184 14.8957C18.2398 14.3227 18.3945 13.6687 18.4367 12.7125C18.4789 11.7527 18.4895 11.4469 18.4895 9.00351C18.4895 6.56016 18.4789 6.2543 18.4367 5.29453C18.3945 4.33828 18.2398 3.68086 18.0184 3.11133C17.7969 2.51367 17.491 2.01094 16.9883 1.51172C16.4891 1.0125 15.9863 0.703125 15.3957 0.474609C14.8227 0.253125 14.1687 0.0984375 13.2125 0.05625C12.2492 0.0105469 11.9434 0 9.5 0Z" fill="#333333"/>
<path d="M9.5 4.37695C6.94766 4.37695 4.87695 6.44766 4.87695 9C4.87695 11.5523 6.94766 13.623 9.5 13.623C12.0523 13.623 14.123 11.5523 14.123 9C14.123 6.44766 12.0523 4.37695 9.5 4.37695ZM9.5 11.9988C7.84414 11.9988 6.50117 10.6559 6.50117 9C6.50117 7.34414 7.84414 6.00117 9.5 6.00117C11.1559 6.00117 12.4988 7.34414 12.4988 9C12.4988 10.6559 11.1559 11.9988 9.5 11.9988Z" fill="#333333"/>
<path d="M15.3852 4.19417C15.3852 4.79182 14.9 5.27347 14.3059 5.27347C13.7082 5.27347 13.2266 4.78831 13.2266 4.19417C13.2266 3.59651 13.7117 3.11487 14.3059 3.11487C14.9 3.11487 15.3852 3.60003 15.3852 4.19417Z" fill="#333333"/>
</g>
<defs>
<clipPath id="clip0_177_2016">
<rect width="18" height="18" fill="white" transform="translate(0.5)"/>
</clipPath>
</defs>
</svg>
