<svg width="16" height="16" viewBox="0 0 16 16" fill="none" xmlns="http://www.w3.org/2000/svg">
<g clip-path="url(#clip0_269_1064)">
<path d="M16 6.48319V12.6672C15.9989 13.5509 15.6474 14.3982 15.0225 15.023C14.3976 15.6479 13.5504 15.9995 12.6667 16.0005H12C11.8232 16.0005 11.6536 15.9303 11.5286 15.8053C11.4036 15.6802 11.3333 15.5107 11.3333 15.3339C11.3333 15.157 11.4036 14.9875 11.5286 14.8625C11.6536 14.7374 11.8232 14.6672 12 14.6672H12.6667C13.1971 14.6672 13.7058 14.4565 14.0809 14.0814C14.456 13.7063 14.6667 13.1976 14.6667 12.6672V6.48319C14.6667 6.1558 14.5863 5.83342 14.4327 5.54433C14.279 5.25525 14.0567 5.00831 13.7853 4.82519L9.11867 1.67653C8.78892 1.45173 8.39909 1.3315 8 1.3315C7.60092 1.3315 7.21109 1.45173 6.88133 1.67653L2.21467 4.82519C1.94328 5.00831 1.721 5.25525 1.56733 5.54433C1.41367 5.83342 1.33332 6.1558 1.33334 6.48319V12.6672C1.33334 13.1976 1.54405 13.7063 1.91912 14.0814C2.29419 14.4565 2.8029 14.6672 3.33334 14.6672H4C4.17681 14.6672 4.34638 14.7374 4.47141 14.8625C4.59643 14.9875 4.66667 15.157 4.66667 15.3339C4.66667 15.5107 4.59643 15.6802 4.47141 15.8053C4.34638 15.9303 4.17681 16.0005 4 16.0005H3.33334C2.44961 15.9995 1.60237 15.6479 0.977482 15.023C0.352591 14.3982 0.00106118 13.5509 2.61138e-06 12.6672V6.48319C-0.000680639 5.93767 0.132722 5.40034 0.388472 4.91849C0.644222 4.43663 1.01448 4.02501 1.46667 3.71986L6.13333 0.570527C6.68351 0.197162 7.3331 -0.00244141 7.998 -0.00244141C8.6629 -0.00244141 9.31249 0.197162 9.86267 0.570527L14.5293 3.71986C14.982 4.02486 15.3528 4.43634 15.6092 4.91815C15.8656 5.39997 15.9998 5.93739 16 6.48319ZM12.6667 10.0052C12.6684 10.6182 12.5485 11.2254 12.3139 11.7918C12.0793 12.3581 11.7347 12.8723 11.3 13.3045L8.95667 15.5965C8.70014 15.8449 8.35707 15.9838 8 15.9838C7.64294 15.9838 7.29987 15.8449 7.04333 15.5965L4.70534 13.3099C4.1616 12.7678 3.75999 12.1 3.53613 11.3656C3.31226 10.6312 3.27304 9.85292 3.42195 9.09974C3.57087 8.34656 3.90331 7.64175 4.3898 7.0478C4.8763 6.45385 5.50183 5.98911 6.21092 5.69477C6.92002 5.40043 7.69079 5.28559 8.45489 5.36043C9.219 5.43527 9.95283 5.69747 10.5913 6.1238C11.2299 6.55013 11.7533 7.12741 12.1153 7.80446C12.4773 8.48152 12.6667 9.23743 12.6667 10.0052ZM11.3333 10.0052C11.3333 9.45704 11.1982 8.91734 10.9398 8.43391C10.6814 7.95047 10.3078 7.53822 9.85202 7.23366C9.39626 6.9291 8.87243 6.74164 8.32692 6.68788C7.78141 6.63412 7.23106 6.71572 6.72461 6.92546C6.21817 7.13519 5.77127 7.46658 5.42349 7.89028C5.0757 8.31398 4.83778 8.8169 4.73078 9.35451C4.62379 9.89212 4.65103 10.4478 4.81009 10.9724C4.96915 11.497 5.25512 11.9742 5.64267 12.3619L7.976 14.6432L10.3627 12.3565C10.6717 12.0481 10.9167 11.6816 11.0833 11.278C11.2499 10.8744 11.3349 10.4418 11.3333 10.0052ZM10 10.0005C10 10.3961 9.8827 10.7828 9.66294 11.1117C9.44318 11.4406 9.13082 11.6969 8.76537 11.8483C8.39992 11.9997 7.99778 12.0393 7.60982 11.9621C7.22186 11.8849 6.86549 11.6944 6.58579 11.4147C6.30608 11.135 6.1156 10.7787 6.03843 10.3907C5.96126 10.0027 6.00087 9.60061 6.15224 9.23516C6.30362 8.86971 6.55996 8.55735 6.88886 8.33759C7.21776 8.11782 7.60444 8.00053 8 8.00053C8.53043 8.00053 9.03914 8.21124 9.41422 8.58631C9.78929 8.96138 10 9.47009 10 10.0005Z" fill="#FF4D00"/>
</g>
<defs>
<clipPath id="clip0_269_1064">
<rect width="16" height="16" fill="white"/>
</clipPath>
</defs>
</svg>
