<svg width="25" height="24" viewBox="0 0 25 24" fill="none" xmlns="http://www.w3.org/2000/svg">
<path fill-rule="evenodd" clip-rule="evenodd" d="M8.00269 13.0021C7.72654 13.0021 7.50269 13.2259 7.50269 13.5021V16.5021C7.50269 16.7782 7.72654 17.0021 8.00269 17.0021C8.27883 17.0021 8.50269 16.7782 8.50269 16.5021V16.0025H9.00004C9.82858 16.0025 10.5002 15.3308 10.5002 14.5023C10.5002 13.6737 9.82858 13.0021 9.00004 13.0021H8.00269ZM9.00004 15.0025H8.50269V14.0021H9.00004C9.27629 14.0021 9.50024 14.226 9.50024 14.5023C9.50024 14.7785 9.2763 15.0025 9.00004 15.0025Z" fill="white"/>
<path d="M15.4977 13.5014C15.498 13.2255 15.7218 13.0021 15.9977 13.0021H17.5027C17.7788 13.0021 18.0027 13.2259 18.0027 13.5021C18.0027 13.7782 17.7788 14.0021 17.5027 14.0021H16.497L16.4958 15.0038H17.5027C17.7788 15.0038 18.0027 15.2277 18.0027 15.5038C18.0027 15.7799 17.7788 16.0038 17.5027 16.0038H16.4964L16.4977 16.5008C16.4984 16.7769 16.2751 17.0014 15.9989 17.0021C15.7228 17.0028 15.4984 16.7795 15.4977 16.5033L15.4951 15.5051L15.4951 15.5032L15.4977 13.5014Z" fill="white"/>
<path fill-rule="evenodd" clip-rule="evenodd" d="M12 13.0021C11.7239 13.0021 11.5 13.2259 11.5 13.5021V16.5021C11.5 16.7782 11.7239 17.0021 12 17.0021H12.4976C13.6021 17.0021 14.4975 16.1067 14.4976 15.0021C14.4976 13.8975 13.6021 13.0021 12.4976 13.0021H12ZM12.5 16.0021V14.0021C13.0512 14.0034 13.4976 14.4506 13.4976 15.0021C13.4975 15.5535 13.0512 16.0008 12.5 16.0021Z" fill="white"/>
<path fill-rule="evenodd" clip-rule="evenodd" d="M12.5 8V2H6.5C5.39543 2 4.5 2.89543 4.5 4V10.6684C3.90876 10.9493 3.5 11.5519 3.5 12.25V17.75C3.5 18.4481 3.90876 19.0507 4.5 19.3316V20C4.5 21.1046 5.39543 22 6.5 22H18.5C19.6046 22 20.5 21.1046 20.5 20V19.3316C21.0912 19.0507 21.5 18.4481 21.5 17.75V12.25C21.5 11.5519 21.0912 10.9493 20.5 10.6684V10H14.5C13.3954 10 12.5 9.10457 12.5 8ZM5.25 12C5.11193 12 5 12.1119 5 12.25V17.75C5 17.8881 5.11193 18 5.25 18H19.75C19.8881 18 20 17.8881 20 17.75V12.25C20 12.1119 19.8881 12 19.75 12H5.25Z" fill="white"/>
<path d="M14 8V2.5L20 8.5H14.5C14.2239 8.5 14 8.27614 14 8Z" fill="white"/>
</svg>
