<svg width="24" height="24" viewBox="0 0 24 24" fill="none" xmlns="http://www.w3.org/2000/svg">
<path fill-rule="evenodd" clip-rule="evenodd" d="M5.45171 1.99994C5.47658 1.99996 5.50165 1.99998 5.52692 1.99998C5.55014 1.99998 5.57315 1.99997 5.59594 1.99995C5.91826 1.99973 6.19847 1.99953 6.45974 2.04563C7.44092 2.21878 8.27212 2.86777 8.67807 3.77766C8.78617 4.01995 8.85394 4.29183 8.93189 4.60458C8.9374 4.6267 8.94297 4.64902 8.9486 4.67155L9.36222 6.32602C9.36602 6.34124 9.36981 6.3564 9.37359 6.37152C9.51168 6.92371 9.63337 7.41037 9.69241 7.82638C9.75636 8.27694 9.76123 8.72847 9.60835 9.19806C9.45546 9.66766 9.1857 10.0298 8.86874 10.3563C8.5761 10.6578 8.19122 10.9796 7.75452 11.3446L7.71853 11.3747L6.2656 12.5894C7.50649 14.763 9.23691 16.4934 11.4105 17.7343L12.6252 16.2814L12.6553 16.2454C13.0203 15.8087 13.3421 15.4238 13.6436 15.1312C13.9701 14.8142 14.3323 14.5445 14.8019 14.3916C15.2714 14.2387 15.723 14.2436 16.1735 14.3075C16.5896 14.3665 17.0762 14.4882 17.6284 14.6263L17.6739 14.6377L19.3284 15.0513C19.3509 15.0569 19.3732 15.0625 19.3953 15.068C19.7081 15.146 19.98 15.2137 20.2223 15.3218C21.1321 15.7278 21.7811 16.559 21.9543 17.5402C22.0004 17.8015 22.0002 18.0817 22 18.404C21.9999 18.4268 21.9999 18.4498 21.9999 18.473C21.9999 18.4983 22 18.5233 22 18.5482C22.0003 18.9207 22.0006 19.25 21.9278 19.576C21.6626 20.7631 20.5738 21.7508 19.3665 21.8995C19.0359 21.9402 18.7502 21.9121 18.4338 21.881C18.4158 21.8792 18.3976 21.8774 18.3794 21.8757C15.7132 21.6155 13.307 20.9488 11.2068 19.8935C8.08465 18.3248 5.67514 15.9153 4.10638 12.7931C3.05114 10.6929 2.38439 8.28676 2.12425 5.62051C2.12247 5.60227 2.12069 5.58414 2.11892 5.56611C2.08781 5.24969 2.05973 4.96404 2.10044 4.6334C2.24908 3.4261 3.23681 2.33731 4.42396 2.07214C4.74988 1.99934 5.0792 1.99962 5.45171 1.99994ZM13.2673 18.6315C14.8446 19.2685 16.6165 19.6942 18.5736 19.8851C18.967 19.9235 19.0336 19.9254 19.1221 19.9145C19.49 19.8692 19.8951 19.5017 19.9759 19.14C19.9944 19.0569 19.9999 18.9621 19.9999 18.473C19.9999 18.0425 19.9962 17.9529 19.9847 17.8878C19.927 17.5607 19.7107 17.2836 19.4074 17.1483C19.3469 17.1213 19.2609 17.096 18.8433 16.9916L17.1888 16.578C16.5776 16.4252 16.1929 16.3303 15.8925 16.2877C15.6153 16.2483 15.498 16.2683 15.421 16.2933C15.344 16.3184 15.2374 16.3713 15.0365 16.5663C14.8188 16.7776 14.5637 17.0808 14.1596 17.5642L13.2673 18.6315ZM5.3684 10.7326L6.43572 9.84031C6.91911 9.43618 7.22229 9.18107 7.43359 8.96337C7.62859 8.76247 7.68153 8.65589 7.70659 8.57892C7.73166 8.50194 7.7516 8.38462 7.71226 8.10743C7.66963 7.80706 7.57475 7.42234 7.42193 6.8111L7.00832 5.15662C6.9039 4.73898 6.87857 4.65297 6.85161 4.59254C6.71629 4.28925 6.43923 4.07292 6.11216 4.0152C6.04701 4.0037 5.95742 3.99998 5.52692 3.99998C5.03782 3.99998 4.94297 4.00549 4.85996 4.02404C4.49825 4.10483 4.13074 4.50994 4.08545 4.87779C4.07455 4.9663 4.07642 5.03296 4.1148 5.4263C4.30575 7.38341 4.73145 9.15533 5.3684 10.7326Z" fill="#FF4D00"/>
</svg>
