<svg width="24" height="24" viewBox="0 0 24 24" fill="none" xmlns="http://www.w3.org/2000/svg">
<path fill-rule="evenodd" clip-rule="evenodd" d="M5 10.1482C5 7.69712 5.89314 5.93541 7.17115 4.77835C8.46619 3.60588 10.2181 3 12 3C13.7819 3 15.5338 3.6059 16.8288 4.77837C18.1069 5.93543 19 7.69715 19 10.1482C19 13.3235 17.0905 16.1249 15.0896 18.1701C14.3554 18.9205 13.9107 19.3671 13.4632 19.6539C13.0761 19.902 12.6698 20.038 12.0002 20.038C11.3306 20.038 10.9243 19.9021 10.5372 19.654C10.0897 19.3672 9.64499 18.9206 8.91076 18.1702C6.90964 16.125 5 13.3236 5 10.1482ZM21 10.1482C21 7.16712 19.8931 4.85474 18.1712 3.29574C16.4662 1.75215 14.2181 1.00001 12 1C9.78191 0.999994 7.53381 1.75213 5.82885 3.29572C4.10686 4.85472 3 7.1671 3 10.1482C3 14.1122 5.356 17.3969 7.48122 19.5689L7.53987 19.6289L7.53989 19.6289C8.19707 20.3007 8.79727 20.9144 9.45805 21.3378C10.1988 21.8126 10.9874 22.038 12.0002 22.038C13.0131 22.038 13.8017 21.8125 14.5424 21.3378C15.2032 20.9143 15.8034 20.3006 16.4605 19.6287L16.5192 19.5688C18.6442 17.3967 21 14.1121 21 10.1482ZM10 10C10 8.89546 10.8954 8.00003 12 8.00003C13.1046 8.00003 14 8.89546 14 10C14 11.1046 13.1046 12 12 12C10.8954 12 10 11.1046 10 10ZM12 6.00003C9.79086 6.00003 8 7.79089 8 10C8 12.2092 9.79086 14 12 14C14.2091 14 16 12.2092 16 10C16 7.79089 14.2091 6.00003 12 6.00003Z" fill="#FF4D00"/>
</svg>
