<svg width="16" height="16" viewBox="0 0 16 16" fill="none" xmlns="http://www.w3.org/2000/svg">
<path fill-rule="evenodd" clip-rule="evenodd" d="M3.16699 6.76537C3.16699 5.08717 3.78023 3.8668 4.66924 3.06193C5.56676 2.24936 6.77604 1.83325 8.00032 1.83325C9.22461 1.83326 10.4339 2.24937 11.3314 3.06195C12.2204 3.86682 12.8337 5.08718 12.8337 6.76537C12.8337 8.28925 12.1959 9.68142 11.3428 10.8596C10.4905 12.0365 9.44676 12.967 8.695 13.5557C8.21911 13.9283 8.14048 13.9645 8.00047 13.9645C7.86046 13.9645 7.78182 13.9283 7.30593 13.5557C6.55412 12.967 5.51027 12.0365 4.65796 10.8596C3.80478 9.68143 3.16699 8.28925 3.16699 6.76537ZM13.8337 6.76537C13.8337 4.82217 13.1136 3.32647 12.0026 2.32063C10.9001 1.3225 9.4427 0.833256 8.00033 0.833252C6.55795 0.833248 5.10056 1.32248 3.99808 2.32062C2.88709 3.32646 2.16699 4.82215 2.16699 6.76537C2.16699 8.57253 2.92209 10.1675 3.84802 11.4461C4.77483 12.7259 5.89631 13.722 6.68941 14.343L6.75289 14.3929C7.12935 14.6889 7.47975 14.9645 8.00048 14.9645C8.52122 14.9645 8.87161 14.6889 9.24805 14.3928L9.31154 14.343C10.1046 13.7219 11.226 12.7259 12.1527 11.4461C13.0786 10.1674 13.8337 8.5725 13.8337 6.76537ZM6.50033 6.66661C6.50033 5.83818 7.1719 5.16661 8.00033 5.16661C8.82875 5.16661 9.50033 5.83818 9.50033 6.66661C9.50033 7.49503 8.82875 8.16661 8.00033 8.16661C7.1719 8.16661 6.50033 7.49503 6.50033 6.66661ZM8.00033 4.16661C6.61961 4.16661 5.50033 5.28589 5.50033 6.66661C5.50033 8.04732 6.61961 9.1666 8.00033 9.1666C9.38104 9.1666 10.5003 8.04732 10.5003 6.66661C10.5003 5.28589 9.38104 4.16661 8.00033 4.16661Z" fill="#8E8E8E"/>
</svg>
