<svg width="37" height="37" viewBox="0 0 37 37" fill="none" xmlns="http://www.w3.org/2000/svg">
<path fill-rule="evenodd" clip-rule="evenodd" d="M23.2773 4.43595C22.9063 4.71902 22.4609 5.16137 21.7743 5.84803L5.84776 21.7745C5.16109 22.4611 4.71873 22.9065 4.43565 23.2775C4.17018 23.6255 4.14062 23.7882 4.14062 23.8958C4.14063 24.0035 4.17018 24.1662 4.43566 24.5141C4.71874 24.8851 5.16111 25.3305 5.8478 26.0172L10.9829 31.152C11.6695 31.8387 12.1149 32.281 12.4859 32.5641C12.8338 32.8295 12.9965 32.8591 13.1042 32.8591C13.2118 32.8591 13.3745 32.8295 13.7225 32.5641C14.0935 32.281 14.5388 31.8386 15.2255 31.152L15.544 30.8335L13.1676 28.4571C12.777 28.0665 12.777 27.4334 13.1676 27.0428C13.5581 26.6523 14.1913 26.6523 14.5818 27.0428L16.9582 29.4193L20.169 26.2084L15.4801 21.5196C15.0895 21.129 15.0895 20.4959 15.4801 20.1053C15.8706 19.7148 16.5038 19.7148 16.8943 20.1053L21.5832 24.7942L24.7939 21.5834L22.4176 19.2071C22.027 18.8166 22.027 18.1834 22.4176 17.7929C22.8081 17.4024 23.4413 17.4024 23.8318 17.7929L26.2081 20.1692L29.4189 16.9584L24.7301 12.2696C24.3395 11.8791 24.3395 11.2459 24.7301 10.8554C25.1206 10.4649 25.7538 10.4649 26.1443 10.8554L30.8331 15.5442L31.1518 15.2255C31.8384 14.5388 32.2808 14.0935 32.5638 13.7225C32.8293 13.3745 32.8589 13.2118 32.8589 13.1042C32.8589 12.9965 32.8293 12.8338 32.5638 12.4859C32.2808 12.1149 31.8384 11.6695 31.1518 10.9829L26.0169 5.84803C25.3303 5.16138 24.8849 4.71902 24.5139 4.43595C24.166 4.17049 24.0033 4.14093 23.8956 4.14093C23.7879 4.14093 23.6252 4.17049 23.2773 4.43595ZM22.0642 2.8459C22.59 2.4447 23.1748 2.14093 23.8956 2.14093C24.6164 2.14093 25.2012 2.44471 25.7271 2.84591C26.2177 3.22027 26.7578 3.76041 27.3846 4.38729L27.4311 4.43382L32.566 9.56865L32.6125 9.61521L32.6126 9.61524L32.6126 9.61529C33.2394 10.2421 33.7795 10.7821 34.1539 11.2727C34.5551 11.7986 34.8588 12.3834 34.8588 13.1042C34.8589 13.8249 34.5551 14.4098 34.1539 14.9356C33.7795 15.4263 33.2394 15.9663 32.6125 16.5931L32.566 16.6397L16.6397 32.5662L16.5931 32.6128C15.9663 33.2396 15.4263 33.7798 14.9356 34.1541C14.4098 34.5553 13.825 34.8591 13.1042 34.8591C12.3834 34.8591 11.7986 34.5553 11.2728 34.1541C10.7821 33.7798 10.2421 33.2397 9.61529 32.6129L9.61527 32.6129L9.61524 32.6128L9.56867 32.5663L4.43361 27.4314L4.38706 27.3849L4.38701 27.3848L4.38699 27.3848C3.76012 26.758 3.22 26.2179 2.84564 25.7273C2.44442 25.2015 2.14063 24.6166 2.14063 23.8958C2.14062 23.1751 2.4444 22.5902 2.84561 22.0644C3.21997 21.5737 3.7601 21.0336 4.38698 20.4068L4.43355 20.3603L20.3601 4.43381L20.4066 4.38726C21.0334 3.76039 21.5735 3.22026 22.0642 2.8459Z" fill="#FF4D00"/>
</svg>
