<svg width="17" height="16" viewBox="0 0 17 16" fill="none" xmlns="http://www.w3.org/2000/svg">
<path fill-rule="evenodd" clip-rule="evenodd" d="M11.3618 0.861888C11.6221 0.601539 12.0442 0.601539 12.3046 0.861888L15.6379 4.19522C15.8983 4.45557 15.8983 4.87768 15.6379 5.13803L5.63791 15.138C5.37756 15.3984 4.95545 15.3984 4.6951 15.138L1.36177 11.8047C1.10142 11.5443 1.10142 11.1222 1.36177 10.8619L3.02834 9.19531L9.69501 2.52865L11.3618 0.861888ZM10.1665 3.94277L9.44265 4.66663L10.9712 6.19522C11.2316 6.45557 11.2316 6.87768 10.9712 7.13803C10.7109 7.39838 10.2888 7.39838 10.0284 7.13803L8.49984 5.60943L7.77598 6.33329L8.63791 7.19522C8.89826 7.45557 8.89826 7.87768 8.63791 8.13803C8.37756 8.39838 7.95545 8.39838 7.6951 8.13803L6.83317 7.2761L6.10931 7.99996L7.63791 9.52855C7.89826 9.7889 7.89826 10.211 7.63791 10.4714C7.37756 10.7317 6.95545 10.7317 6.6951 10.4714L5.1665 8.94277L4.44265 9.66663L5.30457 10.5286C5.56492 10.7889 5.56492 11.211 5.30457 11.4714C5.04423 11.7317 4.62212 11.7317 4.36177 11.4714L3.49984 10.6094L2.77598 11.3333L5.1665 13.7238L14.2237 4.66663L11.8332 2.2761L11.1093 2.99996L11.9712 3.86189C12.2316 4.12224 12.2316 4.54435 11.9712 4.8047C11.7109 5.06505 11.2888 5.06505 11.0284 4.8047L10.1665 3.94277Z" fill="#FF4D00"/>
</svg>
