<svg width="26" height="24" viewBox="0 0 26 24" fill="none" xmlns="http://www.w3.org/2000/svg">
<path d="M13 20H3V12L7 8.8L8 8L13 12V20Z" stroke="#8E8E8E" stroke-width="1.5" stroke-linecap="round" stroke-linejoin="round"/>
<path d="M13 20H21V4H7V8.8" stroke="#8E8E8E" stroke-width="1.5" stroke-linecap="round" stroke-linejoin="round"/>
<path d="M8 16V20" stroke="#8E8E8E" stroke-width="1.5" stroke-linecap="round" stroke-linejoin="round"/>
<path d="M13 8V8.01333" stroke="#8E8E8E" stroke-width="1.5" stroke-linecap="round" stroke-linejoin="round"/>
<path d="M17 8V8.01333" stroke="#8E8E8E" stroke-width="1.5" stroke-linecap="round" stroke-linejoin="round"/>
<path d="M17 12V12.0133" stroke="#8E8E8E" stroke-width="1.5" stroke-linecap="round" stroke-linejoin="round"/>
<path d="M17 16V16.0133" stroke="#8E8E8E" stroke-width="1.5" stroke-linecap="round" stroke-linejoin="round"/>
<path d="M22.2785 17.7867C22.2785 19.638 20.7777 21.1388 18.9263 21.1388C17.075 21.1388 15.5742 19.638 15.5742 17.7867C15.5742 15.9354 17.075 14.4346 18.9263 14.4346C20.7777 14.4346 22.2785 15.9354 22.2785 17.7867Z" fill="#F5F5F5" stroke="#8E8E8E" stroke-width="1.5"/>
<path d="M21.3145 20.2246L22.6553 21.5655" stroke="#8E8E8E" stroke-width="1.5" stroke-linecap="round" stroke-linejoin="round"/>
</svg>
