<svg width="17" height="16" viewBox="0 0 17 16" fill="none" xmlns="http://www.w3.org/2000/svg">
<path fill-rule="evenodd" clip-rule="evenodd" d="M6.95265 1.61914C7.8018 1.01766 8.94014 0.666626 10.1664 0.666626C11.3927 0.666626 12.531 1.01766 13.3802 1.61914C14.2277 2.21948 14.8331 3.11054 14.8331 4.16663V14.6666C14.8331 15.0348 14.5346 15.3333 14.1664 15.3333C13.7982 15.3333 13.4998 15.0348 13.4998 14.6666V4.16663C13.4998 3.65791 13.2097 3.1323 12.6095 2.70717C12.0109 2.28319 11.1493 1.99996 10.1664 1.99996C9.18356 1.99996 8.32191 2.28319 7.72334 2.70717C7.17139 3.09814 6.8817 3.57409 6.83872 4.04374C7.52343 4.13401 8.15246 4.36099 8.65755 4.69771C9.31963 5.1391 9.83309 5.82209 9.83309 6.66663V7.33329C9.83309 7.70148 9.53461 7.99996 9.16642 7.99996H3.16642C2.79823 7.99996 2.49975 7.70148 2.49975 7.33329V6.66663C2.49975 5.82209 3.01321 5.1391 3.67529 4.69771C4.18246 4.3596 4.81457 4.13215 5.50255 4.04263C5.54781 3.04081 6.13849 2.19584 6.95265 1.61914ZM4.4149 5.80711C3.9912 6.08958 3.83309 6.4066 3.83309 6.66663H8.49975C8.49975 6.4066 8.34165 6.08958 7.91794 5.80711C7.4989 5.52775 6.88159 5.33329 6.16642 5.33329C5.45125 5.33329 4.83394 5.52775 4.4149 5.80711ZM6.16642 8.66663C6.53461 8.66663 6.83309 8.9651 6.83309 9.33329V9.66663C6.83309 10.0348 6.53461 10.3333 6.16642 10.3333C5.79823 10.3333 5.49975 10.0348 5.49975 9.66663V9.33329C5.49975 8.9651 5.79823 8.66663 6.16642 8.66663ZM3.78471 8.71692C4.1307 8.84284 4.30911 9.22539 4.18319 9.57138L4.0692 9.88461C3.94328 10.2306 3.56073 10.409 3.21474 10.2831C2.86875 10.1572 2.69034 9.77463 2.81626 9.42864L2.93025 9.1154C3.05616 8.76941 3.43872 8.59101 3.78471 8.71692ZM6.16642 11C6.53461 11 6.83309 11.2984 6.83309 11.6666V12.3333C6.83309 12.7015 6.53461 13 6.16642 13C5.79823 13 5.49975 12.7015 5.49975 12.3333V11.6666C5.49975 11.2984 5.79823 11 6.16642 11ZM2.84177 11.0603C3.18775 11.1862 3.36614 11.5688 3.24022 11.9147L3.0122 12.5412C2.88628 12.8872 2.50371 13.0656 2.15773 12.9397C1.81174 12.8137 1.63335 12.4312 1.75928 12.0852L1.98729 11.4587C2.11322 11.1127 2.49578 10.9343 2.84177 11.0603ZM6.16642 13.6666C6.53461 13.6666 6.83309 13.9651 6.83309 14.3333V14.6666C6.83309 15.0348 6.53461 15.3333 6.16642 15.3333C5.79823 15.3333 5.49975 15.0348 5.49975 14.6666V14.3333C5.49975 13.9651 5.79823 13.6666 6.16642 13.6666ZM1.78475 13.7169C2.13073 13.8429 2.30912 14.2254 2.1832 14.5714L2.06919 14.8846C1.94326 15.2306 1.5607 15.409 1.21472 15.2831C0.86873 15.1572 0.690337 14.7746 0.816265 14.4286L0.930271 14.1154C1.0562 13.7694 1.43876 13.591 1.78475 13.7169Z" fill="#FF4D00"/>
</svg>
