<svg width="17" height="16" viewBox="0 0 17 16" fill="none" xmlns="http://www.w3.org/2000/svg">
<path fill-rule="evenodd" clip-rule="evenodd" d="M4.49951 3.66671C4.31541 3.66671 4.16618 3.81594 4.16618 4.00004V7.00004H5.49951C5.49951 6.07955 6.24569 5.33337 7.16618 5.33337H10.4995C11.42 5.33337 12.1662 6.07955 12.1662 7.00004H13.4995V4.00004C13.4995 3.81593 13.3503 3.66671 13.1662 3.66671H4.49951ZM14.8328 7.03338V4.00004C14.8328 3.07955 14.0867 2.33337 13.1662 2.33337H4.49951C3.57905 2.33337 2.83284 3.07954 2.83284 4.00004V7.03338C2.0721 7.1878 1.49951 7.86037 1.49951 8.66671V11.6667C1.49951 12.0349 1.79799 12.3334 2.16618 12.3334V13C2.16618 13.3682 2.46466 13.6667 2.83284 13.6667C3.20103 13.6667 3.49951 13.3682 3.49951 13V12.3334H14.1662V13C14.1662 13.3682 14.4647 13.6667 14.8328 13.6667C15.201 13.6667 15.4995 13.3682 15.4995 13V12.3334C15.8677 12.3334 16.1662 12.0349 16.1662 11.6667V8.66671C16.1662 7.86037 15.5936 7.1878 14.8328 7.03338ZM14.8328 11V8.66671C14.8328 8.4826 14.6836 8.33337 14.4995 8.33337H3.16618C2.98208 8.33337 2.83284 8.4826 2.83284 8.66671V11H14.8328ZM6.83284 7.00004H10.8328C10.8328 6.81593 10.6836 6.66671 10.4995 6.66671H7.16618C6.98207 6.66671 6.83284 6.81593 6.83284 7.00004Z" fill="#FF4D00"/>
</svg>
