<svg width="24" height="24" viewBox="0 0 24 24" fill="none" xmlns="http://www.w3.org/2000/svg">
<g clip-path="url(#clip0_85_328)">
<path d="M20.3877 3.48769C18.1442 1.23993 15.161 0.00137141 11.9827 0C5.43328 0 0.103354 5.33475 0.100732 11.8919C0.0999691 13.9879 0.646962 16.034 1.68665 17.8375L0.000976562 24L6.29975 22.3464C8.03518 23.294 9.98917 23.7933 11.9776 23.7941H11.9827H11.9827C18.5311 23.7941 23.8618 18.4584 23.8646 11.9016C23.8657 8.72364 22.6308 5.73561 20.3877 3.48769ZM11.9827 21.7855H11.9789C10.2065 21.7846 8.46839 21.3081 6.95237 20.4075L6.59158 20.1933L2.85376 21.1745L3.85171 17.527L3.61664 17.1531C2.62799 15.5792 2.10606 13.7603 2.1068 11.8927C2.10898 6.44257 6.53901 2.00867 11.9865 2.00867C14.6244 2.00976 17.1038 3.03926 18.9685 4.90753C20.833 6.77579 21.8591 9.25937 21.8584 11.9007C21.856 17.351 17.4259 21.7855 11.9827 21.7855Z" fill="#E0E0E0"/>
<path fill-rule="evenodd" clip-rule="evenodd" d="M9.04634 6.84321C8.82652 6.35387 8.59507 6.34408 8.38593 6.33551C8.21487 6.32817 8.01904 6.32862 7.82352 6.32862C7.62784 6.32862 7.30987 6.40224 7.04097 6.69627C6.77192 6.9903 6.01367 7.70111 6.01367 9.14675C6.01367 10.5925 7.06543 11.9895 7.21203 12.1857C7.35879 12.3817 9.24233 15.4432 12.2253 16.6209C14.7044 17.5998 15.2089 17.4051 15.747 17.3561C16.2851 17.3071 17.4833 16.6454 17.7279 15.9593C17.9725 15.2732 17.9725 14.6852 17.8992 14.5623C17.8258 14.4398 17.6301 14.3664 17.3366 14.2194C17.0431 14.0725 15.6003 13.3615 15.3312 13.2636C15.0622 13.1656 14.8665 13.1166 14.6708 13.4108C14.4751 13.7047 13.913 14.3664 13.7418 14.5623C13.5706 14.7586 13.3994 14.7831 13.1059 14.6362C12.8123 14.4888 11.8671 14.1788 10.7458 13.1778C9.87338 12.3991 9.28436 11.4372 9.11314 11.1431C8.94193 10.8492 9.09479 10.69 9.24201 10.5435C9.37378 10.4119 9.53553 10.2005 9.68229 10.0289C9.82873 9.85736 9.87765 9.73491 9.97549 9.53899C10.0733 9.34276 10.0244 9.1712 9.95103 9.02426C9.87765 8.87733 9.30729 7.42422 9.04634 6.84321Z" fill="white"/>
<path d="M20.2903 3.44986C18.0726 1.22791 15.1237 0.00358827 11.9819 0.00219727C5.50764 0.00219727 0.238899 5.2757 0.236297 11.7576C0.235533 13.8296 0.776245 15.8521 1.80399 17.6349L0.137695 23.7267L6.36417 22.092C8.0797 23.0287 10.0112 23.5223 11.9769 23.5231H11.9819H11.9819C18.4551 23.5231 23.7246 18.2487 23.7274 11.7671C23.7284 8.6257 22.5078 5.67198 20.2903 3.44986ZM11.9819 21.5376H11.9781C10.226 21.5367 8.5079 21.0658 7.00929 20.1754L6.65263 19.9637L2.95772 20.9337L3.9442 17.328L3.71184 16.9584C2.73453 15.4026 2.21859 13.6046 2.21936 11.7584C2.22149 6.37085 6.60066 1.98784 11.9856 1.98784C14.5933 1.98892 17.0441 3.00661 18.8875 4.85343C20.7306 6.70024 21.7449 9.1553 21.7442 11.7664C21.7419 17.154 17.3625 21.5376 11.9819 21.5376Z" fill="white"/>
</g>
<defs>
<clipPath id="clip0_85_328">
<rect width="23.8652" height="24" fill="white"/>
</clipPath>
</defs>
</svg>
