<svg width="24" height="24" viewBox="0 0 24 24" fill="none" xmlns="http://www.w3.org/2000/svg">
<g clip-path="url(#clip0_179_2324)">
<path d="M20.3867 3.48769C18.1432 1.23993 15.1601 0.00137141 11.9817 0C5.4323 0 0.102378 5.33475 0.0997557 11.8919C0.0989926 13.9879 0.645986 16.034 1.68567 17.8375L0 24L6.29878 22.3464C8.03421 23.294 9.98819 23.7933 11.9766 23.7941H11.9817H11.9817C18.5301 23.7941 23.8608 18.4584 23.8636 11.9016C23.8647 8.72364 22.6298 5.73561 20.3867 3.48769ZM11.9817 21.7855H11.9779C10.2055 21.7846 8.46741 21.3081 6.95139 20.4075L6.59061 20.1933L2.85278 21.1745L3.85073 17.527L3.61566 17.1531C2.62701 15.5792 2.10508 13.7603 2.10583 11.8927C2.108 6.44257 6.53803 2.00867 11.9855 2.00867C14.6234 2.00976 17.1028 3.03926 18.9675 4.90753C20.8321 6.77579 21.8582 9.25937 21.8574 11.9007C21.8551 17.351 17.4249 21.7855 11.9817 21.7855Z" fill="#E0E0E0"/>
<path d="M0.546875 23.3162L2.15555 17.4352C1.1631 15.714 0.641191 13.7613 0.641817 11.7614C0.64442 5.50394 5.73092 0.413025 11.9806 0.413025C15.0139 0.414396 17.8609 1.59632 20.0014 3.74146C22.1423 5.88658 23.3207 8.73792 23.3194 11.7703C23.3168 18.028 18.23 23.1194 11.9811 23.1194C11.9806 23.1194 11.9814 23.1194 11.9811 23.1194H11.976C10.0784 23.1187 8.21386 22.6418 6.55781 21.7381L0.546875 23.3162Z" fill="url(#paint0_linear_179_2324)"/>
<path fill-rule="evenodd" clip-rule="evenodd" d="M9.04634 6.84321C8.82652 6.35387 8.59507 6.34408 8.38593 6.33551C8.21487 6.32817 8.01904 6.32862 7.82352 6.32862C7.62784 6.32862 7.30987 6.40224 7.04097 6.69627C6.77192 6.9903 6.01367 7.70111 6.01367 9.14675C6.01367 10.5925 7.06543 11.9895 7.21203 12.1857C7.35879 12.3817 9.24233 15.4432 12.2253 16.6209C14.7044 17.5998 15.2089 17.4051 15.747 17.3561C16.2851 17.3071 17.4833 16.6454 17.7279 15.9593C17.9725 15.2732 17.9725 14.6852 17.8992 14.5623C17.8258 14.4398 17.6301 14.3664 17.3366 14.2194C17.0431 14.0725 15.6003 13.3615 15.3312 13.2636C15.0622 13.1656 14.8665 13.1166 14.6708 13.4108C14.4751 13.7047 13.913 14.3664 13.7418 14.5623C13.5706 14.7586 13.3994 14.7831 13.1059 14.6362C12.8123 14.4888 11.8671 14.1788 10.7458 13.1778C9.87338 12.3991 9.28436 11.4372 9.11314 11.1431C8.94193 10.8492 9.09479 10.69 9.24201 10.5435C9.37378 10.4119 9.53553 10.2005 9.68229 10.0289C9.82873 9.85736 9.87765 9.73491 9.97549 9.53899C10.0733 9.34276 10.0244 9.1712 9.95103 9.02426C9.87765 8.87733 9.30729 7.42422 9.04634 6.84321Z" fill="white"/>
<path d="M20.2913 3.44986C18.0736 1.22791 15.1247 0.00358827 11.9829 0.00219727C5.50861 0.00219727 0.239876 5.2757 0.237273 11.7576C0.23651 13.8296 0.777222 15.8521 1.80497 17.6349L0.138672 23.7267L6.36514 22.092C8.08068 23.0287 10.0122 23.5223 11.9778 23.5231H11.9828H11.9829C18.4561 23.5231 23.7256 18.2487 23.7283 11.7671C23.7294 8.6257 22.5087 5.67198 20.2913 3.44986ZM11.9829 21.5376H11.9791C10.227 21.5367 8.50887 21.0658 7.01027 20.1754L6.65361 19.9637L2.9587 20.9337L3.94518 17.328L3.71281 16.9584C2.73551 15.4026 2.21957 13.6046 2.22033 11.7584C2.22247 6.37085 6.60164 1.98784 11.9866 1.98784C14.5943 1.98892 17.0451 3.00661 18.8884 4.85343C20.7316 6.70024 21.7459 9.1553 21.7452 11.7664C21.7428 17.154 17.3635 21.5376 11.9829 21.5376Z" fill="white"/>
</g>
<defs>
<linearGradient id="paint0_linear_179_2324" x1="11.9332" y1="23.3162" x2="11.9332" y2="0.413063" gradientUnits="userSpaceOnUse">
<stop stop-color="#20B038"/>
<stop offset="1" stop-color="#60D66A"/>
</linearGradient>
<clipPath id="clip0_179_2324">
<rect width="23.8652" height="24" fill="white"/>
</clipPath>
</defs>
</svg>
